<svg width="163" height="48" viewBox="0 0 163 48" fill="none" xmlns="http://www.w3.org/2000/svg">
<path d="M45.0498 14.0132H52.6719C57.5313 14.0132 61.5455 16.8248 61.5455 23.2443V24.5932C61.5455 31.0615 57.7913 33.9706 52.8182 33.9706H45.0498V14.0132ZM49.3078 17.6374V30.3301H52.5744C55.3373 30.3301 57.19 28.5262 57.19 24.5119V23.4556C57.19 19.4414 55.2397 17.6374 52.4282 17.6374H49.3078ZM63.8045 17.8324H67.2174L67.77 21.5866C68.42 19.0351 70.0777 17.6699 73.0843 17.6699H74.1407V21.9767H72.3855C68.9238 21.9767 68.0788 23.1793 68.0788 26.5922V34.0193H63.8695V17.8324H63.8045ZM74.9858 26.2509V25.7958C74.9858 20.384 78.4475 17.4261 83.1605 17.4261C87.9711 17.4261 91.3352 20.384 91.3352 25.7958V26.2509C91.3352 31.5653 88.0686 34.4256 83.1605 34.4256C77.9437 34.3769 74.9858 31.5815 74.9858 26.2509ZM87.0285 26.2021V25.7958C87.0285 22.7892 85.517 20.9853 83.1118 20.9853C80.7552 20.9853 79.1951 22.643 79.1951 25.7958V26.2021C79.1951 29.1112 80.7065 30.7689 83.1118 30.7689C85.517 30.7202 87.0285 29.1112 87.0285 26.2021ZM93.5455 17.8324H97.0559L97.4622 20.8878C98.3073 18.84 100.111 17.4261 102.777 17.4261C106.888 17.4261 109.602 20.384 109.602 25.8609V26.3159C109.602 31.6303 106.596 34.4419 102.777 34.4419C100.225 34.4419 98.4698 33.288 97.6085 31.4353V39.61H93.4967L93.5455 17.8324ZM105.328 26.2021V25.8446C105.328 22.6267 103.67 21.034 101.46 21.034C99.1036 21.034 97.5435 22.838 97.5435 25.8446V26.1534C97.5435 29.0137 99.0549 30.8177 101.411 30.8177C103.833 30.7689 105.328 29.225 105.328 26.2021ZM115.827 31.029L115.469 33.9868H111.861V12.4205H115.973V20.6928C116.883 18.58 118.687 17.4261 121.239 17.4261C125.107 17.4749 127.967 20.1402 127.967 25.5033V26.0071C127.967 31.3703 125.253 34.4419 121.141 34.4419C118.427 34.3769 116.672 33.1255 115.827 31.029ZM123.644 26.0071V25.6008C123.644 22.643 122.035 20.9853 119.776 20.9853C117.468 20.9853 115.859 22.838 115.859 25.6496V26.0071C115.859 29.0137 117.42 30.7689 119.727 30.7689C122.198 30.7689 123.644 29.225 123.644 26.0071ZM129.771 26.2509V25.7958C129.771 20.384 133.233 17.4261 137.946 17.4261C142.756 17.4261 146.12 20.384 146.12 25.7958V26.2509C146.12 31.5653 142.805 34.4256 137.946 34.4256C132.729 34.3769 129.771 31.5815 129.771 26.2509ZM141.846 26.2021V25.7958C141.846 22.7892 140.335 20.9853 137.929 20.9853C135.573 20.9853 134.013 22.643 134.013 25.7958V26.2021C134.013 29.1112 135.524 30.7689 137.929 30.7689C140.351 30.7202 141.846 29.1112 141.846 26.2021ZM151.63 25.6008L145.958 17.8324H150.817L154.084 22.6917L157.399 17.8324H162.21L156.457 25.5521L162.519 33.9868H157.757L154.051 28.6237L150.443 33.9868H145.47L151.63 25.6008Z" fill="white"/>
<path d="M18.8522 14.0132L9.42611 20.0264L18.8522 26.0396L9.42611 32.0528L0 26.0071L9.42611 19.9939L0 14.0132L9.42611 8L18.8522 14.0132ZM9.37735 33.9868L18.8035 27.9736L28.2296 33.9868L18.8035 40L9.37735 33.9868ZM18.8522 26.0071L28.2783 19.9939L18.8522 14.0132L28.2296 8L37.6557 14.0132L28.2296 20.0264L37.6557 26.0396L28.2296 32.0528L18.8522 26.0071Z" fill="#0061FF"/>
</svg>
